<?xml version="1.0" encoding="iso-8859-1"?>
<!-- Generator: Adobe Illustrator 19.0.0, SVG Export Plug-In . SVG Version: 6.00 Build 0)  -->
<svg xmlns="http://www.w3.org/2000/svg" xmlns:xlink="http://www.w3.org/1999/xlink" version="1.1" id="Layer_1" x="0px" y="0px" viewBox="0 0 321.493 321.493" style="enable-background:new 0 0 321.493 321.493;" xml:space="preserve" width="512px" height="512px">
<g>
	<g>
		<path d="M160.747,100.373c-11.2,0-20.267,9.067-20.267,20.267c0,11.2,9.067,20.267,20.267,20.267s20.267-9.067,20.267-20.267    C181.013,109.44,171.947,100.373,160.747,100.373z M160.747,127.04c-3.52,0-6.4-2.88-6.4-6.4c0-3.52,2.88-6.4,6.4-6.4    s6.4,2.88,6.4,6.4C167.147,124.16,164.267,127.04,160.747,127.04z" fill="#FFFFFF"/>
	</g>
</g>
<g>
	<g>
		<path d="M160.747,80.213c-44.373,0-80.533,36.16-80.533,80.533s36.16,80.533,80.533,80.533s80.533-36.16,80.533-80.533    S205.12,80.213,160.747,80.213z M160.747,227.413c-36.8,0-66.667-29.867-66.667-66.667s29.867-66.667,66.667-66.667    s66.667,29.867,66.667,66.667S197.547,227.413,160.747,227.413z" fill="#FFFFFF"/>
	</g>
</g>
<g>
	<g>
		<path d="M160.747,0c-14.933,0-26.987,12.053-26.987,26.987s12.053,26.987,26.987,26.987s26.987-12.053,26.987-26.987    S175.68,0,160.747,0z M160.747,40.107c-7.253,0-13.12-5.867-13.12-13.12c0-7.253,5.867-13.12,13.12-13.12    c7.253,0,13.12,5.867,13.12,13.12C173.867,34.24,168,40.107,160.747,40.107z" fill="#FFFFFF"/>
	</g>
</g>
<g>
	<g>
		<rect x="153.813" y="47.04" width="13.867" height="40.107" fill="#FFFFFF"/>
	</g>
</g>
<g>
	<g>
		<path d="M66.133,39.147c-14.933,0-26.987,12.053-26.987,26.987S51.2,93.12,66.133,93.12c14.933,0,26.987-12.053,26.987-26.987    S81.067,39.147,66.133,39.147z M66.133,79.253c-7.253,0-13.12-5.867-13.12-13.12c0-7.253,5.867-13.12,13.12-13.12    c7.253,0,13.12,5.867,13.12,13.12C79.253,73.387,73.387,79.253,66.133,79.253z" fill="#FFFFFF"/>
	</g>
</g>
<g>
	<g>
		<rect x="87.57" y="74.453" transform="matrix(0.7071 -0.7071 0.7071 0.7071 -39.1466 94.504)" width="13.867" height="40.106" fill="#FFFFFF"/>
	</g>
</g>
<g>
	<g>
		<path d="M26.987,133.76C12.053,133.76,0,145.813,0,160.747s12.053,26.987,26.987,26.987s26.987-12.053,26.987-26.987    S41.92,133.76,26.987,133.76z M26.987,173.867c-7.253,0-13.12-5.867-13.12-13.12s5.867-13.12,13.12-13.12    c7.253,0,13.12,5.867,13.12,13.12S34.24,173.867,26.987,173.867z" fill="#FFFFFF"/>
	</g>
</g>
<g>
	<g>
		<rect x="47.04" y="153.813" width="40.107" height="13.867" fill="#FFFFFF"/>
	</g>
</g>
<g>
	<g>
		<path d="M66.133,228.373c-14.933,0-26.987,12.053-26.987,26.987c0,14.933,12.053,26.987,26.987,26.987    c14.933,0,26.987-12.053,26.987-26.987C93.12,240.427,81.067,228.373,66.133,228.373z M66.133,268.48    c-7.253,0-13.12-5.867-13.12-13.12c0-7.253,5.867-13.12,13.12-13.12c7.253,0,13.12,5.867,13.12,13.12    C79.253,262.613,73.387,268.48,66.133,268.48z" fill="#FFFFFF"/>
	</g>
</g>
<g>
	<g>
		
			<rect x="74.437" y="220.048" transform="matrix(0.7071 -0.7071 0.7071 0.7071 -132.8247 133.2965)" width="40.106" height="13.867" fill="#FFFFFF"/>
	</g>
</g>
<g>
	<g>
		<path d="M160.747,267.52c-14.933,0-26.987,12.053-26.987,26.987c0,14.933,12.053,26.987,26.987,26.987    s26.987-12.053,26.987-26.987C187.733,279.573,175.68,267.52,160.747,267.52z M160.747,307.627c-7.253,0-13.12-5.867-13.12-13.12    s5.867-13.12,13.12-13.12c7.253,0,13.12,5.867,13.12,13.12S168,307.627,160.747,307.627z" fill="#FFFFFF"/>
	</g>
</g>
<g>
	<g>
		<rect x="153.813" y="234.347" width="13.867" height="40.107" fill="#FFFFFF"/>
	</g>
</g>
<g>
	<g>
		<path d="M255.36,228.373c-14.933,0-26.987,12.053-26.987,26.987c0,14.933,12.053,26.987,26.987,26.987    c14.933,0,26.987-12.053,26.987-26.987C282.347,240.427,270.293,228.373,255.36,228.373z M255.36,268.48    c-7.253,0-13.12-5.867-13.12-13.12c0-7.253,5.867-13.12,13.12-13.12c7.253,0,13.12,5.867,13.12,13.12    C268.48,262.613,262.613,268.48,255.36,268.48z" fill="#FFFFFF"/>
	</g>
</g>
<g>
	<g>
		
			<rect x="220.061" y="206.926" transform="matrix(0.7071 -0.7071 0.7071 0.7071 -94.0137 226.9896)" width="13.867" height="40.106" fill="#FFFFFF"/>
	</g>
</g>
<g>
	<g>
		<path d="M294.507,133.76c-14.933,0-26.987,12.053-26.987,26.987s12.053,26.987,26.987,26.987s26.987-12.053,26.987-26.987    S309.44,133.76,294.507,133.76z M294.507,173.867c-7.253,0-13.12-5.867-13.12-13.12s5.867-13.12,13.12-13.12    c7.253,0,13.12,5.867,13.12,13.12S301.76,173.867,294.507,173.867z" fill="#FFFFFF"/>
	</g>
</g>
<g>
	<g>
		<rect x="234.347" y="153.813" width="40.107" height="13.867" fill="#FFFFFF"/>
	</g>
</g>
<g>
	<g>
		<path d="M255.36,39.147c-14.933,0-26.987,12.053-26.987,26.987S240.427,93.12,255.36,93.12c14.933,0,26.987-12.053,26.987-26.987    S270.293,39.147,255.36,39.147z M255.36,79.253c-7.253,0-13.12-5.867-13.12-13.12c0-7.253,5.867-13.12,13.12-13.12    c7.253,0,13.12,5.867,13.12,13.12C268.48,73.387,262.613,79.253,255.36,79.253z" fill="#FFFFFF"/>
	</g>
</g>
<g>
	<g>
		
			<rect x="206.953" y="87.564" transform="matrix(0.7071 -0.7071 0.7071 0.7071 -0.3312 188.1952)" width="40.106" height="13.867" fill="#FFFFFF"/>
	</g>
</g>
<g>
	<g>
		<path d="M176,147.093h-30.507c-17.493,0-31.787,14.293-31.787,31.787v22.187h94.08V178.88    C207.787,161.387,193.493,147.093,176,147.093z M193.92,187.2h-66.347v-8.32c0-9.92,8-17.92,17.92-17.92H176    c9.92,0,17.92,8,17.92,17.92V187.2z" fill="#FFFFFF"/>
	</g>
</g>
<g>
</g>
<g>
</g>
<g>
</g>
<g>
</g>
<g>
</g>
<g>
</g>
<g>
</g>
<g>
</g>
<g>
</g>
<g>
</g>
<g>
</g>
<g>
</g>
<g>
</g>
<g>
</g>
<g>
</g>
</svg>
